<svg xmlns="http://www.w3.org/2000/svg" viewBox="0 0 64 64">
  <defs>
    <linearGradient id="admin-bg" x1="14" x2="50" y1="10" y2="54" gradientUnits="userSpaceOnUse">
      <stop offset="0" stop-color="#f59e0b"/>
      <stop offset="1" stop-color="#dc2626"/>
    </linearGradient>
  </defs>
  <rect width="64" height="64" rx="16" fill="#111827"/>
  <path d="m32 12 18 8v11c0 12.6-7.7 19.8-18 23-10.3-3.2-18-10.4-18-23V20l18-8Z" fill="url(#admin-bg)"/>
  <path d="M32 24a6 6 0 1 1-6 6 6 6 0 0 1 6-6Zm0 16c5.5 0 10 2.7 10 6v2H22v-2c0-3.3 4.5-6 10-6Z" fill="#fff7ed"/>
</svg>
